HIERARCHY
ROOT mixamorig:Hips
{
  OFFSET 0.000000 0.000000 0.000000
  CHANNELS 6 Xposition Yposition Zposition Zrotation Xrotation Yrotation
  JOINT mixamorig:Spine
  {
    OFFSET 0.000000 9.878500 1.258800
    CHANNELS 3 Zrotation Xrotation Yrotation
    JOINT mixamorig:Spine1
    {
      OFFSET 0.000000 11.272100 0.038100
      CHANNELS 3 Zrotation Xrotation Yrotation
      JOINT mixamorig:Spine2
      {
        OFFSET 0.000000 10.749001 -0.597600
        CHANNELS 3 Zrotation Xrotation Yrotation
        JOINT mixamorig:Neck
        {
          OFFSET 0.000000 12.015200 -1.691700
          CHANNELS 3 Zrotation Xrotation Yrotation
          JOINT mixamorig:Head
          {
            OFFSET 0.000000 8.810500 2.213900
            CHANNELS 3 Zrotation Xrotation Yrotation
            End Site
            {
              OFFSET 0.000000 18.232300 3.738000
            }
          }
        }
        JOINT mixamorig:LeftShoulder
        {
          OFFSET 6.002800 8.887900 -2.628900
          CHANNELS 3 Zrotation Xrotation Yrotation
          JOINT mixamorig:LeftArm
          {
            OFFSET 12.046300 0.000000 0.000000
            CHANNELS 3 Zrotation Xrotation Yrotation
            JOINT mixamorig:LeftForeArm
            {
              OFFSET 27.876501 0.000000 0.000000
              CHANNELS 3 Zrotation Xrotation Yrotation
              JOINT mixamorig:LeftHand
              {
                OFFSET 25.438500 0.000000 0.000000
                CHANNELS 3 Zrotation Xrotation Yrotation
                End Site
                {
                  OFFSET 10.0 0.0 0.0
                }
              }
            }
          }
        }
        JOINT mixamorig:RightShoulder
        {
          OFFSET -6.002800 8.887900 -2.628900
          CHANNELS 3 Zrotation Xrotation Yrotation
          JOINT mixamorig:RightArm
          {
            OFFSET -12.046300 0.000000 0.000000
            CHANNELS 3 Zrotation Xrotation Yrotation
            JOINT mixamorig:RightForeArm
            {
              OFFSET -27.876501 0.000000 0.000000
              CHANNELS 3 Zrotation Xrotation Yrotation
              JOINT mixamorig:RightHand
              {
                OFFSET -25.438500 0.000000 0.000000
                CHANNELS 3 Zrotation Xrotation Yrotation
                End Site
                {
                  OFFSET -10.0 0.0 0.0
                }
              }
            }
          }
        }
      }
    }
  }
}
MOTION
Frames: 14
Frame Time: 0.033333
50.7307 -106.2667 -0.0292 0.0000 0.0000 0.0000 -0.7803 -4.8605 0.0331 0.0000 0.0000 0.0000 0.0000 0.0000 0.0000 0.0000 0.0000 0.0000 0.0000 0.0000 0.0000 0.0000 0.0000 0.0000 -62.8653 21.8227 35.0118 30.4350 -28.2246 85.4900 0.0000 0.0000 0.0000 0.0000 0.0000 0.0000 54.6592 19.3805 -36.5691 -24.1172 -23.3496 -88.0930 0.0000 0.0000 0.0000
50.7324 -106.4457 -0.0290 0.0000 0.0000 0.0000 -0.7893 -7.0607 0.0487 0.0000 0.0000 0.0000 0.0000 0.0000 0.0000 0.0000 0.0000 0.0000 0.0000 0.0000 0.0000 0.0000 0.0000 0.0000 -62.3533 22.0435 35.6874 29.1055 -27.3360 86.2596 0.0000 0.0000 0.0000 0.0000 0.0000 0.0000 55.1111 19.2475 -36.0041 -24.2750 -23.4827 -88.0429 0.0000 0.0000 0.0000
50.7225 -106.6971 -0.0292 0.0000 0.0000 0.0000 -0.8052 -10.4199 0.0734 0.0000 0.0000 0.0000 0.0000 0.0000 0.0000 0.0000 0.0000 0.0000 0.0000 0.0000 0.0000 0.0000 0.0000 0.0000 -63.2504 21.5732 34.3818 29.2214 -27.4386 86.2446 0.0000 0.0000 0.0000 0.0000 0.0000 0.0000 56.6563 18.6414 -33.8668 -23.9557 -23.3867 -88.5830 0.0000 0.0000 0.0000
50.6844 -106.6916 -0.0283 0.0000 0.0000 0.0000 -0.8176 -12.9312 0.0927 0.0000 0.0000 0.0000 0.0000 0.0000 0.0000 0.0000 0.0000 0.0000 0.0000 0.0000 0.0000 0.0000 0.0000 0.0000 -61.5113 22.3281 36.6958 26.6583 -25.6136 87.6287 0.0000 0.0000 0.0000 0.0000 0.0000 0.0000 54.5427 19.9642 -37.7022 -22.0762 -22.1162 -90.1064 0.0000 0.0000 0.0000
50.6420 -106.5986 -0.0273 0.0000 0.0000 0.0000 -0.7834 -13.9250 0.0957 0.0000 0.0000 0.0000 0.0000 0.0000 0.0000 0.0000 0.0000 0.0000 0.0000 0.0000 0.0000 0.0000 0.0000 0.0000 -62.5346 21.8316 35.2397 28.1734 -26.7194 86.8463 0.0000 0.0000 0.0000 0.0000 0.0000 0.0000 54.7129 20.4639 -38.4654 -22.6568 -23.1792 -91.3414 0.0000 0.0000 0.0000
50.6457 -106.5461 -0.0274 0.0000 0.0000 0.0000 -0.7250 -12.6330 0.0803 0.0000 0.0000 0.0000 0.0000 0.0000 0.0000 0.0000 0.0000 0.0000 0.0000 0.0000 0.0000 0.0000 0.0000 0.0000 -62.8327 21.6619 34.7844 29.4133 -27.6087 86.2208 0.0000 0.0000 0.0000 0.0000 0.0000 0.0000 54.1331 21.1574 -40.1534 -23.3733 -24.3228 -92.3480 0.0000 0.0000 0.0000
50.6538 -106.5793 -0.0271 0.0000 0.0000 0.0000 -0.5832 -13.5700 0.0694 0.0000 0.0000 0.0000 0.0000 0.0000 0.0000 0.0000 0.0000 0.0000 0.0000 0.0000 0.0000 0.0000 0.0000 0.0000 -62.6956 21.7508 35.0102 28.6103 -27.0904 86.7475 0.0000 0.0000 0.0000 0.0000 0.0000 0.0000 54.8220 21.5045 -40.2230 -23.2542 -24.2239 -92.4084 0.0000 0.0000 0.0000
50.6591 -106.8981 -0.0271 0.0000 0.0000 0.0000 -0.4851 -12.1403 0.0516 0.0000 0.0000 0.0000 0.0000 0.0000 0.0000 0.0000 0.0000 0.0000 0.0000 0.0000 0.0000 0.0000 0.0000 0.0000 -61.1067 22.4548 37.1728 28.5255 -27.1354 87.0232 0.0000 0.0000 0.0000 0.0000 0.0000 0.0000 53.5925 22.4511 -42.9061 -22.0007 -23.5270 -93.9427 0.0000 0.0000 0.0000
50.6623 -107.0710 -0.0247 0.0000 0.0000 0.0000 -0.4141 -12.5505 0.0455 0.0000 0.0000 0.0000 0.0000 0.0000 0.0000 0.0000 0.0000 0.0000 0.0000 0.0000 0.0000 0.0000 0.0000 0.0000 -61.6470 22.2738 36.5185 25.8306 -25.2027 88.5424 0.0000 0.0000 0.0000 0.0000 0.0000 0.0000 53.5698 23.2321 -44.3135 -21.4494 -23.1313 -94.4320 0.0000 0.0000 0.0000
50.6879 -107.1357 -0.0228 0.0000 0.0000 0.0000 -0.3940 -11.5727 0.0399 0.0000 0.0000 0.0000 0.0000 0.0000 0.0000 0.0000 0.0000 0.0000 0.0000 0.0000 0.0000 0.0000 0.0000 0.0000 -63.5144 21.4835 34.0782 27.0183 -26.1750 88.1165 0.0000 0.0000 0.0000 0.0000 0.0000 0.0000 55.1602 23.4455 -43.3314 -21.9012 -23.8627 -95.0410 0.0000 0.0000 0.0000
50.7379 -107.1625 -0.0230 0.0000 0.0000 0.0000 -0.3428 -12.6071 0.0379 0.0000 0.0000 0.0000 0.0000 0.0000 0.0000 0.0000 0.0000 0.0000 0.0000 0.0000 0.0000 0.0000 0.0000 0.0000 -63.9423 21.2662 33.4814 27.5063 -26.6032 88.0147 0.0000 0.0000 0.0000 0.0000 0.0000 0.0000 55.6130 23.9009 -43.7336 -22.9279 -25.0215 -95.1487 0.0000 0.0000 0.0000
50.7445 -107.1762 -0.0227 0.0000 0.0000 0.0000 -0.3373 -12.9554 0.0383 0.0000 0.0000 0.0000 0.0000 0.0000 0.0000 0.0000 0.0000 0.0000 0.0000 0.0000 0.0000 0.0000 0.0000 0.0000 -65.0509 20.6662 31.9123 28.8009 -27.6298 87.5233 0.0000 0.0000 0.0000 0.0000 0.0000 0.0000 57.1558 24.1362 -42.8596 -23.0455 -25.2234 -95.3224 0.0000 0.0000 0.0000
50.7606 -107.4051 -0.0216 0.0000 0.0000 0.0000 -0.3211 -13.6953 0.0386 0.0000 0.0000 0.0000 0.0000 0.0000 0.0000 0.0000 0.0000 0.0000 0.0000 0.0000 0.0000 0.0000 0.0000 0.0000 -65.6166 20.3566 31.1249 28.0775 -27.1708 88.0448 0.0000 0.0000 0.0000 0.0000 0.0000 0.0000 58.5441 24.2804 -41.9906 -22.8669 -25.1959 -95.7140 0.0000 0.0000 0.0000
50.7592 -107.4019 -0.0208 0.0000 0.0000 0.0000 -0.3212 -13.3605 0.0376 0.0000 0.0000 0.0000 0.0000 0.0000 0.0000 0.0000 0.0000 0.0000 0.0000 0.0000 0.0000 0.0000 0.0000 0.0000 -65.7093 20.3028 30.9925 27.7221 -26.9337 88.2828 0.0000 0.0000 0.0000 0.0000 0.0000 0.0000 58.6436 24.6657 -42.5377 -22.5949 -25.0552 -96.0843 0.0000 0.0000 0.0000
